<svg width="518" height="44" viewBox="0 0 518 44" fill="none" xmlns="http://www.w3.org/2000/svg">
<path d="M22.1724 16.644H35.9506V23.4974H29.1194V23.4398H22.1724V16.644ZM35.9506 30.4084V39.2775L34.3876 40.3717C32.5736 41.6003 30.6246 42.5218 28.5405 43.1361C26.495 43.712 24.3723 44 22.1724 44C19.1235 44 16.2482 43.4241 13.5466 42.2723C10.845 41.1204 8.49075 39.5462 6.48385 37.5497C4.47694 35.5532 2.89457 33.2304 1.73674 30.5812C0.578915 27.8935 0 25.014 0 21.9424C0 18.9092 0.578915 16.0681 1.73674 13.4188C2.89457 10.7696 4.47694 8.44677 6.48385 6.45026C8.49075 4.45375 10.845 2.87958 13.5466 1.72775C16.2482 0.575916 19.1235 0 22.1724 0C24.3723 0 26.495 0.307155 28.5405 0.921464C30.6246 1.49738 32.5736 2.39965 34.3876 3.62827L30.6246 9.27225C29.3896 8.46597 28.0388 7.85166 26.5722 7.42932C25.1442 6.96859 23.6776 6.73822 22.1724 6.73822C20.0498 6.73822 18.0429 7.14136 16.1517 7.94764C14.2992 8.75393 12.6782 9.84817 11.2888 11.2304C9.89945 12.6126 8.79951 14.2251 7.98903 16.0681C7.21714 17.911 6.8312 19.8691 6.8312 21.9424C6.8312 24.0541 7.21714 26.0506 7.98903 27.9319C8.79951 29.7749 9.89945 31.3874 11.2888 32.7696C12.6782 34.1518 14.2992 35.2461 16.1517 36.0524C18.0429 36.8202 20.0498 37.2042 22.1724 37.2042C24.6425 37.2042 26.9581 36.6667 29.1194 35.5916V30.4084H35.9506Z" fill="#111111"/>
<path d="M60.0357 0.633507L78.6189 43.5969H71.2088L67.1564 34.3246L58.1253 13.2461L51.873 27.5864L44.9261 43.5969H37.6317L56.2728 0.633507H60.0357Z" fill="#111111"/>
<path d="M124.524 0.46073H127.94V43.4817H121.166V13.3037L105.188 29.0838L89.384 13.4188V3.85864L105.188 19.5812L124.524 0.46073ZM82.4949 14.1675H89.2682V43.4817H82.4949V14.1675Z" fill="#111111"/>
<path d="M142.655 23.555V36.9162H164.017V43.5393H135.997V23.555H142.655ZM161.238 16.9319V23.555H149.602V16.9319H161.238ZM135.997 0.633507H164.017V7.25654H142.655V16.7592H135.997V0.633507Z" fill="#111111"/>
<path d="M208.628 0C211.677 0 214.533 0.575916 217.196 1.72775C219.897 2.87958 222.252 4.45375 224.259 6.45026C226.265 8.44677 227.848 10.7888 229.006 13.4764C230.163 16.164 230.742 19.0244 230.742 22.0576C230.742 24.8604 230.241 27.5096 229.237 30.0052C228.272 32.4625 226.941 34.6702 225.243 36.6283C223.545 38.548 221.518 40.1606 219.164 41.466C216.848 42.733 214.34 43.5393 211.638 43.8848V37.3194C213.414 36.9738 215.073 36.3403 216.617 35.4188C218.161 34.4974 219.492 33.3647 220.611 32.0209C221.731 30.6387 222.618 29.103 223.274 27.4136C223.93 25.7243 224.259 23.9389 224.259 22.0576C224.259 19.9075 223.853 17.8918 223.043 16.0105C222.232 14.1291 221.113 12.4782 219.685 11.0576C218.257 9.637 216.598 8.52356 214.706 7.71728C212.815 6.91099 210.789 6.50785 208.628 6.50785C206.467 6.50785 204.44 6.91099 202.549 7.71728C200.658 8.52356 198.999 9.637 197.571 11.0576C196.143 12.4782 195.023 14.1291 194.213 16.0105C193.402 17.8918 192.997 19.9075 192.997 22.0576C192.997 23.9005 193.306 25.6667 193.923 27.356C194.58 29.0454 195.448 30.562 196.529 31.9058C197.648 33.2496 198.96 34.3822 200.465 35.3037C201.97 36.2251 203.611 36.8778 205.386 37.2618V43.8272C202.723 43.4433 200.234 42.6178 197.918 41.3508C195.602 40.0454 193.595 38.4328 191.897 36.5131C190.238 34.5934 188.925 32.4049 187.961 29.9476C186.996 27.452 186.513 24.822 186.513 22.0576C186.513 19.0244 187.092 16.164 188.25 13.4764C189.408 10.7888 190.99 8.44677 192.997 6.45026C195.004 4.45375 197.339 2.87958 200.002 1.72775C202.704 0.575916 205.579 0 208.628 0Z" fill="#111111"/>
<path d="M248.772 24.5916V17.8534H261.45V24.5916H248.772ZM234.82 24.6492H241.593V43.6544H234.82V24.6492ZM234.82 0.575916H263.708V7.31413H241.593V17.7382H234.82V0.575916Z" fill="#111111"/>
<path d="M297.647 0.575916C300.619 0.575916 303.417 1.15183 306.041 2.30366C308.666 3.4171 310.962 4.95288 312.93 6.911C314.899 8.86911 316.442 11.1536 317.562 13.7644C318.719 16.3752 319.298 19.1588 319.298 22.1152C319.298 24.9564 318.777 27.6248 317.735 30.1204C316.732 32.6161 315.342 34.8237 313.567 36.7435C311.792 38.6632 309.708 40.2373 307.315 41.466C304.922 42.6562 302.336 43.3665 299.557 43.5969V36.801C301.371 36.5707 303.069 36.0332 304.652 35.1885C306.234 34.3438 307.604 33.2688 308.762 31.9634C309.92 30.6579 310.827 29.1606 311.483 27.4712C312.178 25.7818 312.525 23.9965 312.525 22.1152C312.525 20.0803 312.139 18.1798 311.367 16.4136C310.595 14.6091 309.534 13.0349 308.183 11.6911C306.832 10.3473 305.25 9.29145 303.436 8.52356C301.622 7.71728 299.692 7.31413 297.647 7.31413H290.931V36.7435H284.1V0.575916H297.647Z" fill="#111111"/>
<path d="M357.471 14.0524C357.471 15.7033 357.182 17.2775 356.603 18.7749C356.024 20.2339 355.213 21.5585 354.171 22.7487C353.168 23.9005 351.971 24.8604 350.582 25.6283C349.192 26.3962 347.687 26.8953 346.066 27.1257L357.413 43.4817H349.308L338.019 27.2984L330.957 27.2408V43.5969H324.241V9.73298H330.957V20.6178H344.156C345.082 20.6178 345.931 20.445 346.703 20.0995C347.514 19.7539 348.208 19.2932 348.787 18.7173C349.405 18.103 349.887 17.4119 350.235 16.644C350.582 15.8377 350.756 14.9738 350.756 14.0524C350.756 13.1309 350.582 12.267 350.235 11.4607C349.887 10.6161 349.405 9.90576 348.787 9.32984C348.208 8.71553 347.514 8.2356 346.703 7.89005C345.893 7.50611 345.044 7.31413 344.156 7.31413L334.314 7.25654V0.575916L344.156 0.633507C346.008 0.633507 347.726 0.998253 349.308 1.72775C350.929 2.41885 352.338 3.37871 353.534 4.60733C354.769 5.79756 355.734 7.21815 356.429 8.86911C357.124 10.4817 357.471 12.2094 357.471 14.0524Z" fill="#111111"/>
<path d="M383.998 0C387.047 0 389.903 0.575916 392.566 1.72775C395.268 2.87958 397.622 4.45375 399.629 6.45026C401.636 8.44677 403.218 10.7888 404.376 13.4764C405.534 16.164 406.113 19.0244 406.113 22.0576C406.113 24.8604 405.611 27.5096 404.608 30.0052C403.643 32.4625 402.311 34.6702 400.613 36.6283C398.915 38.548 396.889 40.1606 394.535 41.466C392.219 42.733 389.71 43.5393 387.009 43.8848V37.3194C388.784 36.9738 390.444 36.3403 391.987 35.4188C393.531 34.4974 394.863 33.3647 395.982 32.0209C397.101 30.6387 397.989 29.103 398.645 27.4136C399.301 25.7243 399.629 23.9389 399.629 22.0576C399.629 19.9075 399.224 17.8918 398.413 16.0105C397.603 14.1291 396.484 12.4782 395.056 11.0576C393.628 9.637 391.968 8.52356 390.077 7.71728C388.186 6.91099 386.16 6.50785 383.998 6.50785C381.837 6.50785 379.811 6.91099 377.92 7.71728C376.029 8.52356 374.369 9.637 372.941 11.0576C371.513 12.4782 370.394 14.1291 369.583 16.0105C368.773 17.8918 368.368 19.9075 368.368 22.0576C368.368 23.9005 368.676 25.6667 369.294 27.356C369.95 29.0454 370.818 30.562 371.899 31.9058C373.018 33.2496 374.33 34.3822 375.836 35.3037C377.341 36.2251 378.981 36.8778 380.756 37.2618V43.8272C378.093 43.4433 375.604 42.6178 373.288 41.3508C370.973 40.0454 368.966 38.4328 367.268 36.5131C365.608 34.5934 364.296 32.4049 363.331 29.9476C362.366 27.452 361.884 24.822 361.884 22.0576C361.884 19.0244 362.463 16.164 363.621 13.4764C364.778 10.7888 366.361 8.44677 368.368 6.45026C370.375 4.45375 372.71 2.87958 375.373 1.72775C378.074 0.575916 380.949 0 383.998 0Z" fill="#111111"/>
<path d="M443.883 29.4869H437.11V0.46073H443.883V29.4869ZM436.936 29.8901V40.7749L416.964 15.7225V43.4817H410.19V0.46073H413.49L436.936 29.8901Z" fill="#111111"/>
<path d="M456.479 23.555V36.9162H477.84V43.5393H449.821V23.555H456.479ZM475.062 16.9319V23.555H463.426V16.9319H475.062ZM449.821 0.633507H477.84V7.25654H456.479V16.7592H449.821V0.633507Z" fill="#111111"/>
<path d="M505.438 18.5445C507.174 18.5445 508.795 18.8709 510.3 19.5236C511.844 20.1763 513.176 21.0785 514.295 22.2304C515.453 23.3438 516.36 24.6684 517.016 26.2042C517.672 27.7016 518 29.3141 518 31.0419C518 32.7696 517.672 34.4014 517.016 35.9372C516.36 37.4346 515.453 38.7592 514.295 39.911C513.176 41.0628 511.844 41.9651 510.3 42.6178C508.795 43.2705 507.174 43.5969 505.438 43.5969H495.133C493.396 43.5969 491.756 43.2705 490.212 42.6178C488.707 41.9651 487.375 41.0628 486.218 39.911C485.098 38.7592 484.211 37.4346 483.555 35.9372C482.898 34.4014 482.57 32.7696 482.57 31.0419H489.286C489.286 31.8482 489.44 32.6161 489.749 33.3455C490.058 34.0366 490.482 34.651 491.023 35.1885C491.563 35.726 492.18 36.1483 492.875 36.4555C493.57 36.7627 494.322 36.9162 495.133 36.9162H505.438C506.248 36.9162 507.001 36.7627 507.695 36.4555C508.39 36.1483 509.008 35.726 509.548 35.1885C510.088 34.651 510.513 34.0366 510.821 33.3455C511.13 32.6161 511.285 31.8482 511.285 31.0419C511.285 30.2356 511.13 29.4869 510.821 28.7958C510.513 28.0663 510.088 27.452 509.548 26.9529C509.008 26.4154 508.39 25.993 507.695 25.6859C507.001 25.3787 506.248 25.2251 505.438 25.2251L495.133 25.1675C493.435 25.1675 491.814 24.8412 490.27 24.1885C488.765 23.5358 487.453 22.6527 486.333 21.5393C485.214 20.4258 484.307 19.1204 483.612 17.623C482.956 16.1257 482.609 14.5323 482.57 12.8429H489.286C489.324 13.6108 489.498 14.3403 489.807 15.0314C490.116 15.7225 490.54 16.3368 491.08 16.8743C491.621 17.3735 492.238 17.7766 492.933 18.0838C493.628 18.3525 494.361 18.4869 495.133 18.4869L505.438 18.5445ZM494.322 0.115182H504.396C506.132 0.115182 507.753 0.441535 509.258 1.09424C510.802 1.74694 512.153 2.64921 513.311 3.80105C514.469 4.91448 515.376 6.23909 516.032 7.77487C516.688 9.27225 517.016 10.8848 517.016 12.6126H510.3C510.3 11.8063 510.146 11.0576 509.837 10.3665C509.529 9.637 509.104 9.02269 508.564 8.52356C508.023 7.98604 507.387 7.5637 506.653 7.25654C505.959 6.94939 505.206 6.79581 504.396 6.79581H494.322V0.115182Z" fill="#111111"/>
</svg>
