<svg width="32" height="32" viewBox="0 0 32 32" fill="none" xmlns="http://www.w3.org/2000/svg">
<path d="M10 27C9.45 27 8.97933 26.795 8.588 26.385C8.196 25.9744 8 25.481 8 24.9048V14.4286C8 13.8524 8.196 13.359 8.588 12.9483C8.97933 12.5383 9.45 12.3333 10 12.3333H11V10.2381C11 8.78889 11.4877 7.5534 12.463 6.53162C13.4377 5.51054 14.6167 5 16 5C17.3833 5 18.5627 5.51054 19.538 6.53162C20.5127 7.5534 21 8.78889 21 10.2381V12.3333H22C22.55 12.3333 23.021 12.5383 23.413 12.9483C23.8043 13.359 24 13.8524 24 14.4286V24.9048C24 25.481 23.8043 25.9744 23.413 26.385C23.021 26.795 22.55 27 22 27H10ZM16 21.7619C16.55 21.7619 17.021 21.5569 17.413 21.147C17.8043 20.7363 18 20.2429 18 19.6667C18 19.0905 17.8043 18.597 17.413 18.1864C17.021 17.7764 16.55 17.5714 16 17.5714C15.45 17.5714 14.9793 17.7764 14.588 18.1864C14.196 18.597 14 19.0905 14 19.6667C14 20.2429 14.196 20.7363 14.588 21.147C14.9793 21.5569 15.45 21.7619 16 21.7619ZM13 12.3333H19V10.2381C19 9.36508 18.7083 8.62302 18.125 8.0119C17.5417 7.40079 16.8333 7.09524 16 7.09524C15.1667 7.09524 14.4583 7.40079 13.875 8.0119C13.2917 8.62302 13 9.36508 13 10.2381V12.3333Z" fill="white"/>
</svg>
