<svg width="32" height="32" viewBox="0 0 32 32" fill="none" xmlns="http://www.w3.org/2000/svg">
<path d="M27 12C27 8.13 23.87 5 20 5C16.47 5 13.57 7.61 13.08 11H8.5C7.84 11 7.28 11.42 7.08 12L5 18V26C5 26.55 5.45 27 6 27H7C7.55 27 8 26.55 8 26V25H20V26C20 26.55 20.45 27 21 27H22C22.55 27 23 26.55 23 26V18.32C25.36 17.19 27 14.79 27 12ZM8.5 12.5H13.03C13.15 14.26 13.92 15.84 15.11 17H7L8.5 12.5ZM8.5 22C7.67 22 7 21.33 7 20.5C7 19.67 7.67 19 8.5 19C9.33 19 10 19.67 10 20.5C10 21.33 9.33 22 8.5 22ZM19.5 22C18.67 22 18 21.33 18 20.5C18 19.67 18.67 19 19.5 19C20.33 19 21 19.67 21 20.5C21 21.33 20.33 22 19.5 22ZM20 17C18.61 17 17.44 16.5 16.47 15.53C15.5 14.56 15 13.39 15 12C15 10.64 15.5 9.46 16.47 8.5C17.44 7.5 18.61 7 20 7C21.36 7 22.54 7.5 23.5 8.5C24.5 9.46 25 10.64 25 12C25 13.39 24.5 14.56 23.5 15.53C22.54 16.5 21.36 17 20 17ZM20.5 12.25L23.36 13.94L22.61 15.16L19 13V8H20.5V12.25Z" fill="white"/>
</svg>
